<?xml version="1.0" standalone="no"?>
<!DOCTYPE svg PUBLIC "-//W3C//DTD SVG 20010904//EN"
 "http://www.w3.org/TR/2001/REC-SVG-20010904/DTD/svg10.dtd">
<svg version="1.0" xmlns="http://www.w3.org/2000/svg"
 width="1264.000000pt" height="945.000000pt" viewBox="0 0 1264.000000 945.000000"
 preserveAspectRatio="xMidYMid meet">

<g transform="translate(0.000000,945.000000) scale(0.100000,-0.100000)"
fill="#000000" stroke="none">
<path d="M3565 6967 c-33 -11 -80 -27 -104 -35 -27 -9 -63 -34 -90 -62 -25
-26 -60 -56 -77 -68 -37 -25 -61 -80 -70 -155 -8 -67 12 -111 61 -131 20 -9
44 -31 60 -56 40 -63 59 -52 65 36 4 62 9 75 37 107 21 23 35 54 43 90 20 99
50 108 180 56 55 -22 111 -39 123 -37 19 3 22 10 25 58 5 82 -11 122 -69 174
-59 53 -85 56 -184 23z"/>
<path d="M9900 6753 c0 -6 5 -24 11 -40 6 -15 21 -66 34 -113 15 -53 24 -74
24 -56 1 17 -10 66 -24 110 -24 79 -45 124 -45 99z"/>
<path d="M9976 6445 c12 -132 -15 -260 -91 -444 -31 -74 -65 -225 -65 -290 l0
-43 -42 5 c-24 3 -214 16 -423 28 l-380 22 -23 26 c-96 107 -141 145 -227 186
-106 51 -210 75 -332 75 -48 0 -161 7 -251 15 -90 8 -236 17 -325 21 l-162 7
-64 38 c-86 52 -122 62 -197 57 -84 -5 -142 -43 -164 -108 -8 -25 -23 -57 -33
-72 -24 -34 -15 -62 24 -78 27 -12 33 -11 57 9 59 47 68 48 135 11 141 -76
186 -120 123 -120 -18 0 -39 6 -45 14 -21 25 -67 28 -123 11 l-53 -17 -52 32
c-36 23 -60 31 -78 28 -20 -4 -25 -2 -20 10 4 12 3 12 -9 3 -9 -8 -13 -31 -12
-74 1 -61 1 -62 39 -80 40 -20 75 -17 101 8 20 21 29 19 54 -10 42 -49 127
-43 146 10 10 28 14 30 59 27 42 -3 47 -5 47 -28 0 -29 11 -31 35 -4 26 29 45
25 45 -9 0 -42 -25 -96 -67 -141 l-36 -40 32 -63 c29 -57 39 -68 147 -142 121
-83 164 -118 164 -133 0 -4 -48 -37 -106 -72 l-105 -64 -377 -17 c-207 -10
-408 -18 -445 -19 -80 0 -80 -4 -17 125 49 102 89 148 156 187 30 16 54 32 54
34 0 2 -202 4 -449 4 l-449 0 -54 -82 c-59 -89 -108 -181 -127 -238 l-11 -35
-402 3 c-439 3 -509 9 -623 60 -33 15 -82 45 -110 67 l-50 40 -234 -7 c-128
-4 -235 -9 -237 -11 -3 -2 -1 -187 3 -411 6 -301 5 -406 -3 -406 -8 0 -13 -35
-16 -103 -5 -159 -38 -187 -153 -133 -67 31 -89 56 -80 94 6 27 4 30 -28 36
-65 12 -90 69 -106 240 -6 56 -12 109 -15 117 -3 7 -17 136 -31 284 -14 149
-44 393 -65 543 l-39 272 -51 77 c-34 53 -50 87 -50 110 0 18 -3 33 -6 33 -3
0 -20 -12 -37 -26 -26 -22 -37 -25 -69 -20 l-39 6 16 -30 c24 -47 28 -132 16
-335 -15 -237 -68 -810 -82 -889 -14 -79 -64 -213 -99 -269 l-28 -45 -89 -7
c-48 -3 -128 -9 -176 -14 -49 -4 -91 -3 -93 1 -3 4 -68 8 -145 8 -108 0 -140
3 -137 13 6 16 166 136 239 178 l59 34 0 235 c0 129 -4 240 -8 246 -4 5 -34
16 -67 23 -33 7 -80 22 -104 32 -55 24 -67 24 -163 -2 l-77 -21 -3 -115 -3
-115 -380 -175 -380 -175 -61 6 -61 6 -59 -72 c-84 -103 -111 -141 -153 -212
l-37 -63 35 -274 34 -274 -37 -37 c-20 -20 -36 -43 -36 -52 0 -25 32 -51 86
-72 27 -10 70 -33 95 -51 111 -79 299 -139 469 -150 83 -5 98 -9 120 -30 71
-71 143 -83 498 -83 160 0 292 -3 292 -7 0 -5 -12 -168 -25 -363 -15 -206 -25
-427 -24 -525 1 -115 -4 -203 -15 -272 -9 -57 -16 -116 -16 -132 0 -35 32 -64
123 -115 71 -39 203 -66 327 -66 82 0 114 14 130 54 8 22 11 22 77 14 107 -15
172 -6 200 26 13 15 23 36 23 46 0 25 -27 50 -54 50 -37 0 -160 142 -198 229
-17 40 -17 45 -3 61 18 20 38 116 60 300 18 148 103 679 111 692 3 4 59 8 124
8 l119 0 11 58 c24 121 72 313 78 308 3 -3 15 -45 27 -93 44 -173 125 -313
252 -434 130 -124 271 -195 439 -219 106 -16 388 -7 473 14 95 24 216 85 300
151 165 130 297 359 326 568 7 47 7 47 46 47 36 0 39 -2 35 -22 -3 -13 -13
-61 -22 -107 -9 -46 -22 -102 -30 -124 -14 -39 -14 -39 9 -33 550 161 1506
323 2632 446 204 22 389 43 413 46 l42 5 0 64 c0 63 0 64 -33 74 -58 20 -107
86 -107 147 0 27 6 29 47 13 39 -14 73 -47 92 -89 l16 -35 26 53 26 53 -41 21
c-33 17 -46 19 -68 10 -32 -12 -62 7 -52 33 6 15 54 21 54 7 0 -4 20 -15 44
-24 l44 -16 -9 31 c-5 18 -9 71 -9 118 0 94 -3 101 -68 134 -24 11 -45 15 -73
10 -31 -5 -40 -3 -45 10 -4 9 0 23 9 33 15 14 18 14 34 0 10 -8 34 -21 53 -28
19 -7 49 -24 66 -36 l32 -23 5 27 c3 15 9 35 12 45 6 14 2 17 -20 17 -15 0
-43 7 -62 17 -38 18 -88 85 -80 106 8 21 90 6 129 -23 l32 -23 -31 55 c-45 79
-49 114 -23 177 13 28 26 51 31 51 5 0 18 -14 28 -31 l19 -31 16 31 c20 38 28
39 46 5 l14 -25 19 25 c24 34 31 33 50 -5 l15 -32 16 32 c9 17 21 31 26 31 17
0 50 -78 50 -117 0 -22 -11 -59 -26 -87 -32 -61 -55 -136 -48 -158 5 -16 8
-16 32 -4 15 8 38 16 52 17 22 4 25 1 21 -21 -5 -37 -38 -98 -60 -109 -12 -7
-17 -18 -14 -34 l5 -24 64 32 c35 18 70 37 77 44 21 17 49 3 45 -23 -3 -18
-10 -21 -53 -21 -70 -1 -131 -40 -137 -88 -3 -30 -1 -33 17 -29 11 3 28 11 37
20 22 18 48 9 48 -18 0 -25 -25 -37 -44 -21 -28 23 -61 3 -79 -49 -17 -47 -17
-50 2 -80 l19 -32 23 42 c25 45 65 74 118 85 33 7 34 7 27 -21 -19 -76 -56
-120 -118 -140 -33 -11 -32 -7 -23 -85 l7 -62 61 7 c33 3 79 6 102 6 l42 0 12
113 c19 171 18 170 57 97 72 -136 163 -226 289 -286 109 -52 195 -67 360 -61
188 7 271 34 395 126 109 81 213 239 241 367 17 77 27 48 29 -81 l1 -100 31
75 c39 98 73 231 95 377 19 130 25 575 10 733 -8 85 -9 86 -44 105 -72 39 -88
90 -69 211 7 46 6 53 -20 84 -38 44 -114 76 -229 97 -95 17 -95 17 -95 46 0
16 -4 46 -9 66 -5 20 -15 61 -21 91 -15 66 -50 163 -57 157 -2 -3 7 -41 20
-84 30 -93 60 -232 54 -248 -5 -10 -65 -8 -645 30 l-112 8 6 51 c12 110 35
199 80 313 25 65 52 147 60 183 16 75 18 258 4 280 -7 10 -8 -8 -4 -55z
m-2743 -618 c18 -8 38 -21 46 -30 17 -21 48 -22 94 -2 71 29 112 12 101 -43
-12 -61 -106 -69 -127 -11 -13 32 -32 32 -76 -2 -29 -23 -43 -24 -81 -4 -25
13 -30 21 -30 54 0 51 18 60 73 38z m-3973 -3769 c0 -19 -2 -20 -10 -8 -13 19
-13 30 0 30 6 0 10 -10 10 -22z"/>
<path d="M9070 4520 c-11 -25 -10 -38 1 -72 l13 -41 18 42 c17 40 17 43 -1 72
l-18 30 -13 -31z"/>
<path d="M9131 4472 c-32 -70 -35 -90 -25 -130 6 -20 8 -19 26 18 11 22 35 49
54 60 l34 21 -25 50 c-14 27 -27 49 -29 49 -2 0 -17 -31 -35 -68z"/>
<path d="M9232 4519 c-19 -30 -7 -78 18 -72 26 7 33 35 19 67 -15 31 -20 32
-37 5z"/>
<path d="M9072 4310 c-10 -40 -9 -45 16 -76 14 -18 28 -32 29 -30 5 4 -18 120
-26 135 -5 9 -12 -1 -19 -29z"/>
<path d="M9237 4320 c-3 -11 -3 -20 -1 -20 2 0 8 9 14 20 6 11 7 20 2 20 -6 0
-12 -9 -15 -20z"/>
<path d="M9168 4292 c-41 -18 -45 -33 -30 -115 l7 -38 26 28 c18 19 30 46 36
86 6 31 7 57 4 56 -3 0 -23 -8 -43 -17z"/>
<path d="M9054 4214 c-8 -33 1 -139 17 -183 l12 -34 15 28 c8 15 17 54 19 86
5 54 4 61 -25 94 l-32 35 -6 -26z"/>
<path d="M9246 4098 c-29 -38 -28 -43 8 -27 17 8 26 20 26 36 0 30 -4 29 -34
-9z"/>
<path d="M9180 4055 c-14 -8 -33 -14 -43 -15 -23 0 -43 -50 -25 -62 19 -12 21
-11 62 31 43 44 46 68 6 46z"/>
<path d="M9242 4047 c-7 -8 -7 -18 -2 -27 10 -17 15 -13 24 18 8 24 -5 30 -22
9z"/>
<path d="M9178 3993 l-37 -38 24 -28 24 -27 12 22 c7 13 18 32 25 43 10 16 10
25 0 43 l-12 22 -36 -37z"/>
<path d="M9060 3924 c-22 -44 -49 -198 -38 -210 3 -3 34 -2 68 2 l63 7 -7 71
c-6 61 -45 176 -60 176 -2 0 -14 -21 -26 -46z"/>
<path d="M9222 3925 c-18 -37 -41 -141 -42 -190 0 -6 24 -8 62 -5 l63 5 -1 55
c-1 66 -18 130 -42 160 l-17 21 -23 -46z"/>
<path d="M9130 3940 c0 -3 7 -27 15 -54 8 -27 16 -63 16 -80 l1 -31 8 30 c14
54 10 80 -15 110 -13 17 -24 28 -25 25z"/>
</g>
</svg>
